Dune (1984)

Director: David Lynch

Dune is a 1984 science fiction film written and directed by David Lynch, based on the 1965 Frank Herbert novel of the same name. The film stars Kyle MacLachlan as Paul Atreides, and includes an ensemble of well-known American and European actors in supporting roles. It was filmed at the Churubusco Studios in Mexico City and included a soundtrack by the band Toto. As in the novel, the central plot concerns a young man foretold in prophecy as the "Kwisatz Haderach" who will protect the titular desert planet from the malevolent House Harkonnen with the aid of native Fremen.

After the success of the novel, attempts to adapt Dune for a film began as early as 1971. A lengthy process of development hell followed throughout the 1970s, during which Arthur P. Jacobs, Alejandro Jodorowsky, and Ridley Scott all tried to bring their vision to the screen. In 1981, David Lynch was hired as director by executive producer Dino De Laurentiis.

The film was not well-received by critics and performed poorly at the American box office at the time. Upon its release, director David Lynch distanced himself from the project, stating that pressure from both producers and financiers restrained his artistic control and denied him final cut. Fans of the Dune series are polarized by the movie, although the film has become a cult favorite, and at least three different versions have been released worldwide. In some cuts of the film Lynch's name is replaced in the credits with the name of a fictional director Alan Smithee, a pseudonym used by directors who wish not to be associated with a film for which they would normally be credited.

On March 30, 1983, with the 135-page 6th draft of the script, Dune finally began shooting. It was shot entirely in Mexico. With a budget of over 40 million dollars, Dune required 80 sets built on 16 sound stages and a total crew of 1700. Many of the exterior shots were filmed in the Samalayuca Dunes in Chihuahua.

Media Info:
General
Complete name                    : J:\Seeding\Dune (1984)[DVDRip][big_dad_e™]\Dune (1984)[DVDRip][big_dad_e™].avi
Format                           : AVI
Format/Info                      : Audio Video Interleave
Format profile                   : OpenDML
File size                        : 1.89 GiB
Duration                         : 2h 16mn
Overall bit rate                 : 1 990 Kbps
Writing application              : Lavf51.12.1

Video
ID                               : 0
Format                           : MPEG-4 Visual
Format profile                   : Simple@L1
Format settings, BVOP            : No
Format settings, QPel            : No
Format settings, GMC             : No warppoints
Format settings, Matrix          : Default (H.263)
Codec ID                         : DX50
Codec ID/Hint                    : DivX 5
Duration                         : 2h 16mn
Bit rate                         : 1 657 Kbps
Width                            : 720 pixels
Height                           : 540 pixels
Display aspect ratio             : 4:3
Frame rate                       : 23.976 fps
Color space                      : YUV
Chroma subsampling               : 4:2:0
Bit depth                        : 8 bits
Scan type                        : Progressive
Bits/(Pixel*Frame)               : 0.178
Stream size                      : 1.58 GiB (83%)
Writing library                  : Lavc51.40.4

Audio
ID                               : 1
Format                           : MPEG Audio
Format version                   : Version 1
Format profile                   : Layer 3
Mode                             : Joint stereo
Codec ID                         : 55
Codec ID/Hint                    : MP3
Duration                         : 3mn 47s
Bit rate mode                    : Constant
Bit rate                         : 320 Kbps
Channel(s)                       : 2 channels
Sampling rate                    : 44.1 KHz
Stream size                      : 8.68 MiB (0%)
Alignment                        : Aligned on interleaves
Interleave, duration             : 939 ms (22.51 video frames)

File Scan:
Malwarebytes' Anti-Malware 1.46
www.malwarebytes.org

Database version: 5177

Windows 5.1.2600 Service Pack 3
Internet Explorer 8.0.6001.18702

11/23/2010 3:09:47 PM
mbam-log-2010-11-23 (15-09-47).txt

Scan type: Quick scan
Objects scanned: 6
Time elapsed: 11 second(s)

Memory Processes Infected: 0
Memory Modules Infected: 0
Registry Keys Infected: 0
Registry Values Infected: 0
Registry Data Items Infected: 0
Folders Infected: 0
Files Infected: 0

Memory Processes Infected:
(No malicious items detected)

Memory Modules Infected:
(No malicious items detected)

Registry Keys Infected:
(No malicious items detected)

Registry Values Infected:
(No malicious items detected)

Registry Data Items Infected:
(No malicious items detected)

Folders Infected:
(No malicious items detected)

Files Infected:
(No malicious items detected)

When using TPB please read these important notes:
  
01- Anti-malware apps may warn about keygens, patches, cracks, etc., because of 
    their capabilities, (generating codes, etc.). Sometimes they're added to 
    the virus/spyware database and will be detected as malware. If you don't trust
    the keygens, patches, cracks, etc., don't use them. 
    
02- Before running .exe-files, keygens, patches, cracks, etc., always check first 
    if they can be unpacked. Often some third party added a virus to the 
    original file, repacked it and uploaded it again.

03- Letting anti-malware apps send scan results to their companies can cause
    keygens, patches, cracks, etc., to be added to their virus-database.

04- Firewalls which are set to automatically determine connections will allow 
    apps & malware!. Avoid this by manually configuring your firewall.

05- Usually (new) torrents with many downloads and seeders in a brief period is
    suspicious! Torrents with the Skull & Crossbones icon are trusted.

06- Some people use multiple accounts and post fake comments 
    and/or files trying to spread confusion. They seldom seriously
    comment or have any torrents, or a just a few to look passable.

07- Clicking on unknown links can cause malware to be installed on your machine.
  
08- In general often there are more fake and negative comments than reliable and
    positive comments.

09- In some countries uploading/downloading copyright protected material is 
    forbidden, but showing some appreciation to reliable up-loaders is not.

10- Posting fake and negative comments or fake/infected uploads on TPB can result
    in getting banned from TPB!

Requests?  Find me on SuprBay.
 

For reporting bad or suspicious torrents:  
http://forum.suprbay.org/forumdisplay.php?fid=29

For more of my torrents: 
https://thepiratebay.org/user/big_dad_e/  (Secured)

All torrents scanned with:
Norton Anti-virus
Malwarebytes' Anti-malware
 
http://www.pirate-party.us/

ALWAYS SEED & THANKS SEEDERS!